<svg xmlns="http://www.w3.org/2000/svg" width="48.026" height="44.67" viewBox="0 0 48.026 44.67">
  <g id="_1465397" data-name="1465397" transform="translate(0 493.216)">
    <path id="Path_1957" data-name="Path 1957" d="M13.892-491.7l-.788,1.576-.666-.216A8.9,8.9,0,0,0,4.915-489.2,8.948,8.948,0,0,0,1.5-478.4a9.424,9.424,0,0,0,4.184,4.653l.488.244-.319.835a15.891,15.891,0,0,0-1.041,6.679,14.374,14.374,0,0,0,.769,4.812c.169.572.31,1.051.3,1.06s-.732.319-1.613.694-1.6.694-1.623.7c-.047.038,7.6,3.058,7.795,3.077.15.019.413-.591,1.717-3.865.844-2.139,1.52-3.9,1.5-3.93a13.814,13.814,0,0,0-1.482.591c-.788.347-1.482.647-1.548.675a5.859,5.859,0,0,1-.741-2.514,13.51,13.51,0,0,1,.525-5.9,13.224,13.224,0,0,1,6.763-7.589,11.7,11.7,0,0,1,5.009-1.191,11.706,11.706,0,0,1,6.191,1.323,12.242,12.242,0,0,1,3.63,2.664,12.777,12.777,0,0,1,3.414,6.885,17.173,17.173,0,0,1-.094,4.615,12.31,12.31,0,0,1-3.574,6.472,12.54,12.54,0,0,1-6.472,3.583c-.6.15-1.763.169-12.963.188L0-453.611v5.065H11.519c7.157,0,11.932-.038,12.635-.1a17.866,17.866,0,0,0,11.172-5.187,17.9,17.9,0,0,0,.713-24.585,19.718,19.718,0,0,0-4.9-3.874,18.966,18.966,0,0,0-5.938-1.942,23.031,23.031,0,0,0-5.084,0,17.912,17.912,0,0,0-10.393,5.384,6.135,6.135,0,0,1-1.022.947,2.733,2.733,0,0,1-.619-.234,4.313,4.313,0,0,1-1.829-1.895,3.051,3.051,0,0,1-.328-1.51A3.175,3.175,0,0,1,6.1-483a3.919,3.919,0,0,1,3.527-2.673,4.584,4.584,0,0,1,1.013.019l.235.056-.741,1.52a12.891,12.891,0,0,0-.713,1.548c.019.019,1.276-.385,2.786-.9s3.283-1.107,3.93-1.323,1.2-.431,1.248-.469c.066-.056-2.5-7.832-2.645-7.992A8.175,8.175,0,0,0,13.892-491.7Z" fill="#2684ff"/>
    <path id="Path_1958" data-name="Path 1958" d="M337.881-70.306a20.192,20.192,0,0,1-4.962,3.808,7.967,7.967,0,0,0-.919.525c0,.019,3.8.038,8.442.038h8.442V-71H338.519Z" transform="translate(-300.858 -382.611)" fill="#2684ff"/>
  </g>
</svg>
