<svg xmlns="http://www.w3.org/2000/svg" width="15" height="15" viewBox="0 0 15 15">
  <path id="Path_1701" data-name="Path 1701" d="M414.14,545.116l-.05-.13-.56-1.49a2.365,2.365,0,0,0-1.22-1.32,2.44,2.44,0,0,0-.24-.1,1.278,1.278,0,0,0-.28-.07c-.1-.02-.2-.03-.3-.04a.375.375,0,0,0-.1-.01,1.476,1.476,0,0,0-.21-.01h-9a1.475,1.475,0,0,0-.21.01.375.375,0,0,0-.1.01c-.1.01-.2.02-.3.04a1.278,1.278,0,0,0-.28.07,2.441,2.441,0,0,0-.24.1,2.365,2.365,0,0,0-1.22,1.32l-.31.81v.01l-.25.67a3.246,3.246,0,0,0-.08.43v.01l-.01.29v8.23a3,3,0,0,0,3,3h9a3,3,0,0,0,3-3v-8.59A.637.637,0,0,0,414.14,545.116Zm-4.23,6.15-3.07,3.41a.68.68,0,0,1-.96.05c-.02-.02-.04-.03-.05-.05l-3.07-3.41a.68.68,0,0,1,.05-.96.65.65,0,0,1,.46-.18h1.36v-2.24a1.165,1.165,0,0,1,1.17-1.17h1.07a1.165,1.165,0,0,1,1.17,1.17v2.24h1.36a.681.681,0,0,1,.68.68A.707.707,0,0,1,409.91,551.266Zm-9.06-6.59.26-.7a1.027,1.027,0,0,1,.96-.67h9.22a1.027,1.027,0,0,1,.96.67l.26.7Z" transform="translate(-399.18 -541.946)" fill="#707070"/>
</svg>
