<svg id="Group_1584" data-name="Group 1584" xmlns="http://www.w3.org/2000/svg" width="5.017" height="5.868" viewBox="0 0 5.017 5.868">
  <path id="Icon_ionic-ios-arrow-down" data-name="Icon ionic-ios-arrow-down" d="M2.509,2l1.9-1.9a.357.357,0,0,1,.506,0,.362.362,0,0,1,0,.508L2.763,2.764a.358.358,0,0,1-.494.01L.1.615A.359.359,0,0,1,.611.107Z" transform="translate(5.017 5.868) rotate(180)" fill="#2684ff"/>
  <path id="Icon_ionic-ios-arrow-down-2" data-name="Icon ionic-ios-arrow-down" d="M2.509,2l1.9-1.9a.357.357,0,0,1,.506,0,.362.362,0,0,1,0,.508L2.763,2.764a.358.358,0,0,1-.494.01L.1.615A.359.359,0,0,1,.611.107Z" transform="translate(5.017 2.868) rotate(180)" fill="#2684ff"/>
</svg>
