<svg xmlns="http://www.w3.org/2000/svg" width="20" height="20" viewBox="0 0 20 20">
  <path id="Path_1146" data-name="Path 1146" d="M415.725,420.294h-12a4,4,0,0,0-4,4v12a4,4,0,0,0,4,4h12a4,4,0,0,0,4-4v-12A4,4,0,0,0,415.725,420.294Zm-8.081,3.655a2.94,2.94,0,0,1,5.021,2.081h-5.88A2.838,2.838,0,0,1,407.644,423.949Zm9.257,7.788a.567.567,0,0,1-.413.175h-2.059a5.369,5.369,0,0,1-.615,2.664l1.911,1.92a.578.578,0,0,1,0,.828.579.579,0,0,1-.827,0l-1.82-1.811a1.767,1.767,0,0,1-.137.12c-.061.048-.189.136-.385.261a5.916,5.916,0,0,1-.6.335,4.131,4.131,0,0,1-.753.267,3.459,3.459,0,0,1-.892.12v-8.233h-1.176v8.233a3.606,3.606,0,0,1-.933-.124,3.727,3.727,0,0,1-.8-.3c-.224-.119-.425-.239-.607-.357a3.6,3.6,0,0,1-.4-.3l-.137-.129-1.681,1.9a.593.593,0,0,1-.883-.791l1.856-2.085a5.5,5.5,0,0,1-.532-2.517h-2.059a.589.589,0,0,1,0-1.177h2.059v-2.7l-1.591-1.589a.585.585,0,1,1,.828-.827l1.589,1.589H413.6l1.589-1.589a.585.585,0,1,1,.828.827l-1.591,1.589v2.7h2.059a.586.586,0,0,1,.413,1Z" transform="translate(-399.725 -420.294)" fill="#f0142f"/>
</svg>
