<svg xmlns="http://www.w3.org/2000/svg" width="23.969" height="15.789" viewBox="0 0 23.969 15.789">
  <g id="_6579051_and_camera_computers_hardware_video_icon" data-name="6579051_and_camera_computers_hardware_video_icon" transform="translate(-3 -8)">
    <path id="Path_65" data-name="Path 65" d="M16.969,8H5.993A2.924,2.924,0,0,0,3,10.961v9.868A2.924,2.924,0,0,0,5.993,23.79H16.969a2.924,2.924,0,0,0,2.993-2.961V10.961A2.924,2.924,0,0,0,16.969,8Z" transform="translate(0 0)" fill="#2684ff"/>
    <path id="Path_66" data-name="Path 66" d="M26.978,8.069a.677.677,0,0,0-.766,0l-3.829,2.374a.837.837,0,0,0-.383.712v6.33a.837.837,0,0,0,.383.712l3.829,2.374a.559.559,0,0,0,.383.079.672.672,0,0,0,.383-.079.837.837,0,0,0,.383-.712V8.781A.837.837,0,0,0,26.978,8.069Z" transform="translate(-0.392 1.571)" fill="#2684ff"/>
  </g>
</svg>
