<svg xmlns="http://www.w3.org/2000/svg" width="21.711" height="17.369" viewBox="0 0 21.711 17.369">
  <path id="_216124_camera_icon_1_" data-name="216124_camera_icon (1)" d="M20.454,6.171H18.733L17.647,5.086A4.069,4.069,0,0,0,15.027,4H10.684A4.069,4.069,0,0,0,8.064,5.086L6.978,6.171H5.257A3.261,3.261,0,0,0,2,9.428v8.684a3.261,3.261,0,0,0,3.257,3.257h15.2a3.261,3.261,0,0,0,3.257-3.257V9.428A3.261,3.261,0,0,0,20.454,6.171Zm-7.6,10.855a3.8,3.8,0,1,1,3.8-3.8A3.8,3.8,0,0,1,12.855,17.027Zm6.513-5.1a1.411,1.411,0,1,1,1.411-1.41A1.409,1.409,0,0,1,19.369,11.923Z" transform="translate(-2 -4)" fill="#fff"/>
</svg>
