<svg xmlns="http://www.w3.org/2000/svg" width="479.208" height="237.344" viewBox="0 0 479.208 237.344">
  <g id="Group_1667" data-name="Group 1667" transform="translate(-900.792 -678)">
    <rect id="Shape" width="478.78" height="1.344" transform="translate(900.792 678)" fill="#f1f1f5"/>
    <rect id="Shape-2" data-name="Shape" width="478.78" height="1.344" transform="translate(900.792 717)" fill="#f1f1f5"/>
    <rect id="Shape-3" data-name="Shape" width="478.78" height="1.344" transform="translate(900.792 757)" fill="#f1f1f5"/>
    <rect id="Shape-4" data-name="Shape" width="478.78" height="1.344" transform="translate(900.792 796)" fill="#f1f1f5"/>
    <rect id="Shape-5" data-name="Shape" width="478.78" height="1.344" transform="translate(900.792 835)" fill="#f1f1f5"/>
    <rect id="Shape-6" data-name="Shape" width="478.78" height="1.344" transform="translate(900.792 875)" fill="#f1f1f5"/>
    <rect id="Shape-7" data-name="Shape" width="478.78" height="1.344" transform="translate(900.792 914)" fill="#f1f1f5"/>
    <rect id="Rectangle_971" data-name="Rectangle 971" width="55" height="77" transform="translate(913 820)" fill="#28a745"/>
    <rect id="Rectangle_972" data-name="Rectangle 972" width="55" height="17" transform="translate(913 897)" fill="#f0142f"/>
    <rect id="Rectangle_971-2" data-name="Rectangle 971" width="55" height="86" transform="translate(968 797)" fill="#28a745"/>
    <rect id="Rectangle_972-2" data-name="Rectangle 972" width="55" height="32" transform="translate(968 882)" fill="#f0142f"/>
    <rect id="Rectangle_971-3" data-name="Rectangle 971" width="55" height="60" transform="translate(990 801)" fill="#28a745"/>
    <rect id="Rectangle_972-3" data-name="Rectangle 972" width="55" height="40" transform="translate(990 861)" fill="#f0142f"/>
    <rect id="Rectangle_971-4" data-name="Rectangle 971" width="55" height="95" transform="translate(1033 770)" fill="#28a745"/>
    <rect id="Rectangle_972-4" data-name="Rectangle 972" width="55" height="23" transform="translate(1033 865)" fill="#f0142f"/>
    <rect id="Rectangle_973" data-name="Rectangle 973" width="55" height="17" transform="translate(1033 888)" fill="#ff7452"/>
    <rect id="Rectangle_975" data-name="Rectangle 975" width="55" height="9" transform="translate(1033 905)" fill="#007bff"/>
    <rect id="Rectangle_974" data-name="Rectangle 974" width="55" height="13" transform="translate(990 901)" fill="#ff7452"/>
    <rect id="Rectangle_971-5" data-name="Rectangle 971" width="55" height="93" transform="translate(1076 742)" fill="#28a745"/>
    <rect id="Rectangle_972-5" data-name="Rectangle 972" width="55" height="47" transform="translate(1076 867)" fill="#007bff"/>
    <rect id="Rectangle_976" data-name="Rectangle 976" width="55" height="32" transform="translate(1076 835)" fill="#ff7452"/>
    <rect id="Rectangle_977" data-name="Rectangle 977" width="55" height="24" transform="translate(1119 835)" fill="#ff7452"/>
    <rect id="Rectangle_978" data-name="Rectangle 978" width="55" height="24" transform="translate(1162 859)" fill="#ff7452"/>
    <rect id="Rectangle_971-6" data-name="Rectangle 971" width="55" height="65" transform="translate(1119 770)" fill="#28a745"/>
    <rect id="Rectangle_972-6" data-name="Rectangle 972" width="55" height="55" transform="translate(1119 859)" fill="#007bff"/>
    <rect id="Rectangle_971-7" data-name="Rectangle 971" width="55" height="124" transform="translate(1162 735)" fill="#28a745"/>
    <rect id="Rectangle_972-7" data-name="Rectangle 972" width="55" height="33" transform="translate(1162 881)" fill="#007bff"/>
    <rect id="Rectangle_971-8" data-name="Rectangle 971" width="55" height="33" transform="translate(1205 770)" fill="#28a745"/>
    <rect id="Rectangle_979" data-name="Rectangle 979" width="55" height="78" transform="translate(1205 803)" fill="#ff7452"/>
    <rect id="Rectangle_972-8" data-name="Rectangle 972" width="55" height="37" transform="translate(1205 859)" fill="#f0142f"/>
    <rect id="Rectangle_981" data-name="Rectangle 981" width="55" height="18" transform="translate(1205 896)" fill="#007bff"/>
    <rect id="Rectangle_971-9" data-name="Rectangle 971" width="55" height="95" transform="translate(1248 792)" fill="#ff7452"/>
    <rect id="Rectangle_980" data-name="Rectangle 980" width="55" height="35" transform="translate(1248 757)" fill="#28a745"/>
    <rect id="Rectangle_972-9" data-name="Rectangle 972" width="55" height="28" transform="translate(1248 886)" fill="#f0142f"/>
    <rect id="Rectangle_971-10" data-name="Rectangle 971" width="55" height="111" transform="translate(1274 770)" fill="#ff7452"/>
    <rect id="Rectangle_989" data-name="Rectangle 989" width="51" height="89" transform="translate(1329 797)" fill="#ff7452"/>
    <rect id="Rectangle_972-10" data-name="Rectangle 972" width="55" height="55" transform="translate(1274 859)" fill="#f0142f"/>
    <rect id="Rectangle_971-11" data-name="Rectangle 971" width="51" height="27" transform="translate(1329 770)" fill="#28a745"/>
    <rect id="Rectangle_972-11" data-name="Rectangle 972" width="51" height="28" transform="translate(1329 886)" fill="#f0142f"/>
  </g>
</svg>
