<svg xmlns="http://www.w3.org/2000/svg" width="485.647" height="238.634" viewBox="0 0 485.647 238.634">
  <g id="Group_1665" data-name="Group 1665" transform="translate(-330.792 -308.024)">
    <rect id="Shape" width="478.78" height="1.344" transform="translate(330.792 309)" fill="#f1f1f5"/>
    <rect id="Shape-2" data-name="Shape" width="478.78" height="1.344" transform="translate(330.792 348)" fill="#f1f1f5"/>
    <rect id="Shape-3" data-name="Shape" width="478.78" height="1.344" transform="translate(330.792 388)" fill="#f1f1f5"/>
    <rect id="Shape-4" data-name="Shape" width="478.78" height="1.344" transform="translate(330.792 427)" fill="#f1f1f5"/>
    <rect id="Shape-5" data-name="Shape" width="478.78" height="1.344" transform="translate(330.792 466)" fill="#f1f1f5"/>
    <rect id="Shape-6" data-name="Shape" width="478.78" height="1.344" transform="translate(330.792 506)" fill="#f1f1f5"/>
    <rect id="Shape-7" data-name="Shape" width="478.78" height="1.344" transform="translate(330.792 545)" fill="#f1f1f5"/>
    <path id="Path_1180" data-name="Path 1180" d="M-919.546,5849.682l426.059-236.765" transform="translate(1251 -5304)" fill="none" stroke="#28a745" stroke-width="2"/>
    <path id="Path_1181" data-name="Path 1181" d="M-962.1,5849.682l468.615-236.765" transform="translate(1308.607 -5304)" fill="none" stroke="#ff7452" stroke-width="2"/>
    <path id="Path_1182" data-name="Path 1182" d="M-909.579,5849.731l474.454-191.743" transform="translate(1251 -5304)" fill="none" stroke="#2684ff" stroke-width="2"/>
    <path id="Path_1183" data-name="Path 1183" d="M-916.332,5849.632l44.686-7.625,44.707-13.4,42.961-51.8,42.961,32.153,46.1-32.153,44.707-78.6,40.516,41.084,41.913-65.646,45.056-14.29,41.564,5.359,45.87-48.288" transform="translate(1251 -5304)" fill="none" stroke="#f0142f" stroke-width="2"/>
  </g>
</svg>
