<svg xmlns="http://www.w3.org/2000/svg" width="478.78" height="237.344" viewBox="0 0 478.78 237.344">
  <g id="Group_1668" data-name="Group 1668" transform="translate(-330.792 -678)">
    <rect id="Shape" width="478.78" height="1.344" transform="translate(330.792 678)" fill="#f1f1f5"/>
    <rect id="Shape-2" data-name="Shape" width="478.78" height="1.344" transform="translate(330.792 717)" fill="#f1f1f5"/>
    <rect id="Shape-3" data-name="Shape" width="478.78" height="1.344" transform="translate(330.792 757)" fill="#f1f1f5"/>
    <rect id="Shape-4" data-name="Shape" width="478.78" height="1.344" transform="translate(330.792 796)" fill="#f1f1f5"/>
    <rect id="Shape-5" data-name="Shape" width="478.78" height="1.344" transform="translate(330.792 835)" fill="#f1f1f5"/>
    <rect id="Shape-6" data-name="Shape" width="478.78" height="1.344" transform="translate(330.792 875)" fill="#f1f1f5"/>
    <rect id="Shape-7" data-name="Shape" width="478.78" height="1.344" transform="translate(330.792 914)" fill="#f1f1f5"/>
    <rect id="Rectangle_949" data-name="Rectangle 949" width="15" height="118" transform="translate(331 797)" fill="#ff7452"/>
    <rect id="Rectangle_952" data-name="Rectangle 952" width="15" height="79" transform="translate(387 836)" fill="#ff7452"/>
    <rect id="Rectangle_954" data-name="Rectangle 954" width="15" height="50" transform="translate(414 865)" fill="#ff7452"/>
    <rect id="Rectangle_956" data-name="Rectangle 956" width="15" height="106" transform="translate(459 809)" fill="#ff7452"/>
    <rect id="Rectangle_958" data-name="Rectangle 958" width="15" height="140" transform="translate(502 775)" fill="#ff7452"/>
    <rect id="Rectangle_960" data-name="Rectangle 960" width="15" height="157" transform="translate(548 758)" fill="#ff7452"/>
    <rect id="Rectangle_962" data-name="Rectangle 962" width="15" height="118" transform="translate(594 797)" fill="#ff7452"/>
    <rect id="Rectangle_964" data-name="Rectangle 964" width="15" height="43" transform="translate(636 872)" fill="#ff7452"/>
    <rect id="Rectangle_966" data-name="Rectangle 966" width="15" height="101" transform="translate(679 814)" fill="#ff7452"/>
    <rect id="Rectangle_968" data-name="Rectangle 968" width="15" height="118" transform="translate(725 797)" fill="#ff7452"/>
    <rect id="Rectangle_970" data-name="Rectangle 970" width="15" height="112" transform="translate(755 803)" fill="#ff7452"/>
    <rect id="Rectangle_950" data-name="Rectangle 950" width="15" height="118" transform="translate(348 797)" fill="#28a745"/>
    <rect id="Rectangle_951" data-name="Rectangle 951" width="15" height="100" transform="translate(404 815)" fill="#28a745"/>
    <rect id="Rectangle_953" data-name="Rectangle 953" width="15" height="88" transform="translate(427 827)" fill="#28a745"/>
    <rect id="Rectangle_955" data-name="Rectangle 955" width="15" height="79" transform="translate(472 836)" fill="#28a745"/>
    <rect id="Rectangle_957" data-name="Rectangle 957" width="15" height="122" transform="translate(516 793)" fill="#28a745"/>
    <rect id="Rectangle_959" data-name="Rectangle 959" width="15" height="182" transform="translate(561 733)" fill="#28a745"/>
    <rect id="Rectangle_961" data-name="Rectangle 961" width="15" height="79" transform="translate(608 836)" fill="#28a745"/>
    <rect id="Rectangle_963" data-name="Rectangle 963" width="15" height="79" transform="translate(650 836)" fill="#28a745"/>
    <rect id="Rectangle_965" data-name="Rectangle 965" width="15" height="167" transform="translate(693 748)" fill="#28a745"/>
    <rect id="Rectangle_967" data-name="Rectangle 967" width="15" height="112" transform="translate(716 803)" fill="#28a745"/>
    <rect id="Rectangle_969" data-name="Rectangle 969" width="15" height="118" transform="translate(772 797)" fill="#28a745"/>
  </g>
</svg>
