<svg xmlns="http://www.w3.org/2000/svg" width="480.571" height="237.537" viewBox="0 0 480.571 237.537">
  <g id="Group_1666" data-name="Group 1666" transform="translate(-899 -309)">
    <rect id="Shape" width="479.78" height="1.344" transform="translate(899.792 309)" fill="#f1f1f5"/>
    <rect id="Shape-2" data-name="Shape" width="479.78" height="1.344" transform="translate(899.792 348)" fill="#f1f1f5"/>
    <rect id="Shape-3" data-name="Shape" width="479.78" height="1.344" transform="translate(899.792 388)" fill="#f1f1f5"/>
    <rect id="Shape-4" data-name="Shape" width="479.78" height="1.344" transform="translate(899.792 427)" fill="#f1f1f5"/>
    <rect id="Shape-5" data-name="Shape" width="479.78" height="1.344" transform="translate(899.792 466)" fill="#f1f1f5"/>
    <rect id="Shape-6" data-name="Shape" width="479.78" height="1.344" transform="translate(899.792 506)" fill="#f1f1f5"/>
    <rect id="Shape-7" data-name="Shape" width="479.78" height="1.344" transform="translate(899.792 545)" fill="#f1f1f5"/>
    <path id="Path_1171" data-name="Path 1171" d="M-919.868,6114.221l426.755,235.441" transform="translate(1820 -5804)" fill="none" stroke="#ff7452" stroke-width="2"/>
    <path id="Path_1172" data-name="Path 1172" d="M-920.635,6115.179l36.158,38.692,46.593,51.32,46.593-24.151,37.965,49.056,46.018,18.867,51.2-9.056,33.938,45.282,43.717-7.547,43.707,60.773,40.377,11.575" transform="translate(1820 -5804)" fill="none" stroke="#707070" stroke-width="1"/>
  </g>
</svg>
