<svg id="_2133056_document_eps_file_format_pdf_icon" data-name="2133056_document_eps_file_format_pdf_icon" xmlns="http://www.w3.org/2000/svg" width="13.852" height="16.917" viewBox="0 0 13.852 16.917">
  <path id="Path_1148" data-name="Path 1148" d="M65.06,9.8,61.288,6.081a.279.279,0,0,0-.2-.081h-6.96a1.959,1.959,0,0,0-1.9,2.01v7.416H51.3v5.028h.927v.453a1.964,1.964,0,0,0,1.9,2.01h9.115a1.959,1.959,0,0,0,1.9-2.01V10.016A.3.3,0,0,0,65.06,9.8ZM61,6.623l3.282,3.235H62.492A1.484,1.484,0,0,1,61,8.389Zm3.58,14.285a1.369,1.369,0,0,1-1.33,1.4H54.132a1.369,1.369,0,0,1-1.33-1.4v-.453h6.327a2.386,2.386,0,0,0,2.233-2.514,2.388,2.388,0,0,0-2.233-2.514H52.8V8.01a1.369,1.369,0,0,1,1.33-1.4h6.29V8.389a2.074,2.074,0,0,0,2.071,2.074h2.084Zm-11.5-1.7V16.671h.971a.926.926,0,0,1,.656.217.747.747,0,0,1,.237.572.731.731,0,0,1-.237.572.953.953,0,0,1-.656.217H53.5v.961H53.08Zm2.379,0V16.671H56.3a1.072,1.072,0,0,1,.785.3,1.04,1.04,0,0,1,.3.775v.386a1.048,1.048,0,0,1-.3.775,1.072,1.072,0,0,1-.785.3h-.839ZM59.4,17.788v.338H58.382v1.083h-.426V16.671h1.624v.338h-1.2v.775H59.4Z" transform="translate(-51.3 -6)" fill="#ed1c24"/>
  <path id="Path_1149" data-name="Path 1149" d="M117.3,332.268a.451.451,0,0,0,.118-.318.427.427,0,0,0-.474-.45H116.4v.9h.548A.478.478,0,0,0,117.3,332.268Z" transform="translate(-114.197 -320.487)" fill="#ed1c24"/>
  <path id="Path_1150" data-name="Path 1150" d="M187.116,331.5H186.7v1.861h.416a.6.6,0,0,0,.484-.206.788.788,0,0,0,.179-.531v-.389a.785.785,0,0,0-.179-.528A.6.6,0,0,0,187.116,331.5Z" transform="translate(-182.119 -320.487)" fill="#ed1c24"/>
</svg>
