<svg xmlns="http://www.w3.org/2000/svg" width="16.805" height="15.196" viewBox="0 0 16.805 15.196">
  <g id="Group_1655" data-name="Group 1655" transform="translate(-192.56 255.266) rotate(-90)">
    <path id="Path_1665" data-name="Path 1665" d="M254.4,199.83a.869.869,0,0,1-.869.869h-7.572l1.063,1.063a.873.873,0,0,1,.013,1.219.013.013,0,0,0-.013.013.866.866,0,0,1-.609.259.881.881,0,0,1-.635-.259l-2.541-2.554a.626.626,0,0,1-.194-.285.837.837,0,0,1,0-.661.662.662,0,0,1,.194-.272l2.541-2.567a.881.881,0,0,1,1.245,1.245l-1.063,1.063h7.572A.869.869,0,0,1,254.4,199.83Z" transform="translate(0.862 1.145)" fill="#707070"/>
    <path id="Path_1666" data-name="Path 1666" d="M241.82,195.062v11.76a.742.742,0,0,0,.22.571.818.818,0,0,0,.558.22h5a.875.875,0,0,1,.013,1.75h-4.992a2.437,2.437,0,0,1-1.815-.752,2.548,2.548,0,0,1-.739-1.815v-11.76a2.526,2.526,0,0,1,2.554-2.477H247.6a.866.866,0,0,1,.869.856v.026a.869.869,0,0,1-.869.869h-4.992A.8.8,0,0,0,241.82,195.062Z" transform="translate(0 0)" fill="#707070"/>
  </g>
</svg>
