<svg xmlns="http://www.w3.org/2000/svg" width="24.528" height="19.999" viewBox="0 0 24.528 19.999">
  <g id="Group_1639" data-name="Group 1639" transform="translate(-457.87 -532.69)">
    <path id="Path_1154" data-name="Path 1154" d="M470.229,551.876a1.034,1.034,0,0,1-.027-.213l.453-2.6a1.719,1.719,0,0,1,.36-.773l.507-.6,1.667-1.947,4.68-5.52V536.69a4,4,0,0,0-4-4h-12a3.994,3.994,0,0,0-4,4v12a3.994,3.994,0,0,0,4,4h9.36A1,1,0,0,1,470.229,551.876Zm-7.36-14.186h10a1,1,0,0,1,1,1,.951.951,0,0,1-.213.613.461.461,0,0,1-.107.12,1,1,0,0,1-.68.267h-10a1,1,0,0,1-.68-.267.458.458,0,0,1-.107-.12.951.951,0,0,1-.213-.613A1,1,0,0,1,462.87,537.69Zm5,10h-5a.99.99,0,0,1-1-1,.7.7,0,0,1,.053-.28.931.931,0,0,1,.627-.667.9.9,0,0,1,.32-.053h5a1,1,0,0,1,0,2Zm-5-4a.99.99,0,0,1-1-1,.931.931,0,0,1,.24-.64.99.99,0,0,1,.76-.36h6.753a.7.7,0,0,1,.28.053.978.978,0,0,1,.707.773.758.758,0,0,1,.013.173.908.908,0,0,1-.24.64.949.949,0,0,1-.76.36Z" transform="translate(0 0)" fill="#0052cc"/>
    <path id="Path_1155" data-name="Path 1155" d="M470.557,548.12l-2.44.853a1.29,1.29,0,0,1-.227.013h2.64a3.994,3.994,0,0,0,4-4V543.8l-3.266,3.84A1.714,1.714,0,0,1,470.557,548.12Z" transform="translate(3.339 3.703)" fill="#0052cc"/>
    <path id="Path_1156" data-name="Path 1156" d="M479.006,539.107l-1.947-1.653a.408.408,0,0,0-.267-.093.42.42,0,0,0-.307.147l-1.867,2.2-6.346,7.466a.908.908,0,0,0-.213.44l-.44,2.56a.348.348,0,0,0,.413.293l2.4-.84a.953.953,0,0,0,.413-.28l3.773-4.44,4.44-5.226A.417.417,0,0,0,479.006,539.107Z" transform="translate(3.249 1.556)" fill="#0052cc"/>
  </g>
</svg>
