<svg xmlns="http://www.w3.org/2000/svg" width="30.756" height="25.337" viewBox="0 0 30.756 25.337">
  <g id="Back_log" data-name="Back log" transform="translate(474.656 -375.956)">
    <path id="Path_5958" data-name="Path 5958" d="M-444.51,382.617a5.911,5.911,0,0,0-1.695-3.194,5.614,5.614,0,0,0-1.787-1.24,5.124,5.124,0,0,0-2.539-.505,4.917,4.917,0,0,1-.765-.029c0-.011.132-.225.288-.465.327-.5.356-.684.137-.937a.388.388,0,0,0-.367-.177.577.577,0,0,0-.334.1c-.063.057-.413.552-.781,1.1-.552.821-.666,1.034-.666,1.207a.593.593,0,0,0,.075.3,12.473,12.473,0,0,0,1.1.787c1.161.781,1.287.827,1.586.528.327-.327.2-.626-.437-1.04a1.378,1.378,0,0,1-.373-.3c0-.04.263-.051.764-.029a4.092,4.092,0,0,1,1.247.185,5.008,5.008,0,0,1,3.373,3.367,3.567,3.567,0,0,1,.155,1.4,3.913,3.913,0,0,1-.414,2.1,5.45,5.45,0,0,1-1.66,1.993,2.561,2.561,0,0,0-.448.379.46.46,0,0,0,.08.62c.23.225.448.218.827-.023a6.2,6.2,0,0,0,2.632-3.982A8.966,8.966,0,0,0-444.51,382.617Z" transform="translate(0.545 0.003)" fill="#0052cc"/>
    <rect id="Rectangle_2797" data-name="Rectangle 2797" width="21.09" height="7.124" rx="0.512" transform="translate(-474.656 375.956)" fill="#0052cc"/>
    <path id="Path_5959" data-name="Path 5959" d="M-454.523,393.693h-2.955q0,.055,0,.111a1.774,1.774,0,0,0,1.773,1.773,1.776,1.776,0,0,0,1.71-1.3v-.054A.525.525,0,0,0-454.523,393.693Z" transform="translate(0.433 0.447)" fill="#0052cc"/>
    <path id="Path_5960" data-name="Path 5960" d="M-457.611,398.851a.614.614,0,0,0-.6-.59.531.531,0,0,0-.28.081l-.022.013-.023.011-.676.338a1.638,1.638,0,0,1-.877.255,1.736,1.736,0,0,1-1.487-.87v0l0,0-.578-.985a1.623,1.623,0,0,1-.228-1.256,1.761,1.761,0,0,1,.829-1.126h0l0,0,.7-.411.008-.005.008,0a.552.552,0,0,0,.27-.492.644.644,0,0,0-.009-.111h-13.561a.525.525,0,0,0-.525.525v6.074a.525.525,0,0,0,.525.525h16.947a1.739,1.739,0,0,1-.427-1.144Z" transform="translate(0 0.447)" fill="#0052cc"/>
    <path id="Path_5961" data-name="Path 5961" d="M-452.456,389.57a.535.535,0,0,0,.281-.081l.005,0,.006,0,.691-.4a1.638,1.638,0,0,1,.894-.267,1.736,1.736,0,0,1,1.487.87v0l.246.417V385.35a.525.525,0,0,0-.525-.526H-469.41a.525.525,0,0,0-.524.526v6.074a.524.524,0,0,0,.524.524h6.943a1.893,1.893,0,0,1,.162-1.229l.009-.017.009-.016.584-.992a1.7,1.7,0,0,1,1.489-.867,1.733,1.733,0,0,1,.868.237l.687.343.023.011.022.013a.531.531,0,0,0,.28.081.614.614,0,0,0,.6-.589v-.763a1.75,1.75,0,0,1,1.748-1.748h1.174a1.75,1.75,0,0,1,1.749,1.748v.821A.614.614,0,0,0-452.456,389.57Z" transform="translate(0.119 0.223)" fill="#0052cc"/>
    <path id="Path_5962" data-name="Path 5962" d="M-450.309,392.918l.7-.411a1.144,1.144,0,0,0,.565-1.228,1.1,1.1,0,0,0-.154-.356l-.587-1a1.166,1.166,0,0,0-.993-.591,1.062,1.062,0,0,0-.592.18l-.7.41a1.1,1.1,0,0,1-.582.166,1.184,1.184,0,0,1-1.179-1.164v-.821A1.177,1.177,0,0,0-455,386.932h-1.174a1.178,1.178,0,0,0-1.174,1.174v.763a1.184,1.184,0,0,1-1.179,1.164,1.1,1.1,0,0,1-.581-.166l-.7-.352a1.142,1.142,0,0,0-.594-.168,1.136,1.136,0,0,0-.99.578l-.587,1a1.316,1.316,0,0,0-.085.972,1.233,1.233,0,0,0,.5.67l.7.411a1.1,1.1,0,0,1,.566.887,1.124,1.124,0,0,1-.566,1.108l-.7.411a1.116,1.116,0,0,0-.411,1.585l.587,1a1.167,1.167,0,0,0,.993.592,1.052,1.052,0,0,0,.591-.181l.7-.352a1.1,1.1,0,0,1,.581-.166,1.184,1.184,0,0,1,1.179,1.164v.822a1.178,1.178,0,0,0,.917,1.144,1.126,1.126,0,0,0,.257.029H-455a1.134,1.134,0,0,0,.258-.029,1.179,1.179,0,0,0,.865-.807,1.149,1.149,0,0,0,.05-.337v-.764a1.184,1.184,0,0,1,1.179-1.164,1.1,1.1,0,0,1,.582.166l.7.411a1.151,1.151,0,0,0,.595.167,1.137,1.137,0,0,0,.99-.578l.587-1a1.341,1.341,0,0,0-.411-1.7l-.7-.411A1.207,1.207,0,0,1-450.309,392.918Zm-3.572,2.66a2.344,2.344,0,0,1-1.71.743,2.355,2.355,0,0,1-2.348-2.348c0-.037,0-.074,0-.111a2.359,2.359,0,0,1,1.259-1.968,2.326,2.326,0,0,1,1.087-.269,2.326,2.326,0,0,1,1.087.269,2.356,2.356,0,0,1,1.261,2.079A2.343,2.343,0,0,1-453.88,395.578Z" transform="translate(0.315 0.276)" fill="#0052cc"/>
  </g>
</svg>
