<svg xmlns="http://www.w3.org/2000/svg" width="11.782" height="15.055" viewBox="0 0 11.782 15.055">
  <g id="_9004782_lock_security_secure_protect_icon" data-name="9004782_lock_security_secure_protect_icon" transform="translate(-3)">
    <path id="Path_1657" data-name="Path 1657" d="M9.927,0A3.927,3.927,0,0,0,6,3.927v.655H7.309V3.927a2.618,2.618,0,1,1,5.237,0v.655h1.309V3.927A3.927,3.927,0,0,0,9.927,0Z" transform="translate(-1.036)" fill="#0052cc"/>
    <path id="Path_1658" data-name="Path 1658" d="M12.819,9H4.964A1.964,1.964,0,0,0,3,10.964V16.2a1.964,1.964,0,0,0,1.964,1.964h7.855A1.964,1.964,0,0,0,14.782,16.2V10.964A1.964,1.964,0,0,0,12.819,9ZM9.546,14.06v1.486a.655.655,0,0,1-1.309,0V14.06a1.309,1.309,0,1,1,1.309,0Z" transform="translate(0 -3.109)" fill="#0052cc"/>
  </g>
</svg>
