<svg xmlns="http://www.w3.org/2000/svg" width="16.595" height="24.139" viewBox="0 0 16.595 24.139">
  <path id="_8665642_microphone_lines_icon" data-name="8665642_microphone_lines_icon" d="M24.3,16.6a4.525,4.525,0,0,0,4.526-4.526H25.052a.754.754,0,1,1,0-1.509h3.772V9.052H25.052a.754.754,0,1,1,0-1.509h3.772V5.992H25.052a.754.754,0,1,1,0-1.509l3.772.042a4.526,4.526,0,0,0-9.052,0v7.543A4.5,4.5,0,0,0,24.3,16.6Zm7.166-7.543a1.121,1.121,0,0,0-1.132,1.089v1.928a6.04,6.04,0,0,1-6.426,6.021,6.344,6.344,0,0,1-5.643-6.261V10.141a1.132,1.132,0,0,0-2.263,0v1.516a8.556,8.556,0,0,0,7.166,8.566v1.652H21.28a1.509,1.509,0,0,0-1.507,1.583.742.742,0,0,0,.752.68h7.543a.741.741,0,0,0,.752-.68,1.51,1.51,0,0,0-1.507-1.583H25.429V20.284A8.305,8.305,0,0,0,32.6,12.069V10.141A1.121,1.121,0,0,0,31.464,9.052Z" transform="translate(-16)" fill="#2684ff"/>
</svg>
