<svg xmlns="http://www.w3.org/2000/svg" width="22.502" height="25.007" viewBox="0 0 22.502 25.007">
  <g id="Nitification_icon" data-name="Nitification icon" transform="translate(-332.449 -469.3)">
    <path id="Path_317" data-name="Path 317" d="M354.95,486.63a3.6,3.6,0,0,1-3.47,3.68H335.92a3.6,3.6,0,0,1-3.47-3.68,3.486,3.486,0,0,1,2.22-3.13v-4.6c0-5.28,4.04-9.59,9.03-9.59v-.01c4.99,0,9.03,4.32,9.03,9.6v4.6A3.487,3.487,0,0,1,354.95,486.63Z" fill="#707070"/>
    <path id="path1199" d="M341.7,492.307a1,1,0,0,0,0,2h4a1,1,0,1,0,0-2Z" fill="#707070"/>
  </g>
</svg>
