<svg id="Group_773" data-name="Group 773" xmlns="http://www.w3.org/2000/svg" width="7.491" height="8.763" viewBox="0 0 7.491 8.763">
  <path id="Icon_ionic-ios-arrow-down" data-name="Icon ionic-ios-arrow-down" d="M3.747,2.992,6.58.157a.533.533,0,0,1,.756,0,.54.54,0,0,1,0,.758L4.126,4.127a.534.534,0,0,1-.738.016L.156.918A.535.535,0,0,1,.912.159Z" transform="translate(7.491 8.763) rotate(180)" fill="#707070"/>
  <path id="Icon_ionic-ios-arrow-down-2" data-name="Icon ionic-ios-arrow-down" d="M3.747,2.992,6.58.157a.533.533,0,0,1,.756,0,.54.54,0,0,1,0,.758L4.126,4.127a.534.534,0,0,1-.738.016L.156.918A.535.535,0,0,1,.912.159Z" transform="translate(7.491 4.283) rotate(180)" fill="#707070"/>
</svg>
