<svg xmlns="http://www.w3.org/2000/svg" width="44.212" height="48.099" viewBox="0 0 44.212 48.099">
  <g id="_2" data-name="2" transform="translate(-10765.326 -6426.594)">
    <path id="Path_6595" data-name="Path 6595" d="M10786.381,6471.1c-.231-.1-1.036-.41-1.806-.7-7.442-2.732-12.22-8.115-14.6-16.448a43.278,43.278,0,0,1-1.257-15.976l.081-.714a11.821,11.821,0,0,1,.192-1.434,1.287,1.287,0,0,1,.149-.051l.205-.064,8.552-3.042c5.356-1.893,7.628-2.669,7.929-2.769,1.192.383,14.873,5.219,16.767,5.925.227,1.43.384,2.883.47,4.322a45.8,45.8,0,0,1-.112,6.361,2.959,2.959,0,0,0,.075,1.48,1.542,1.542,0,0,0,2,.874,1.517,1.517,0,0,0,.5-.316c.409-.364.483-.624.6-1.491.068-.534.124-2.547.124-4.477a38.815,38.815,0,0,0-.245-5.537c-.363-2.968-.37-3.025-.7-3.4-.219-.279-.713-.519-9.662-3.686-4.524-1.609-9.358-3.3-9.6-3.347a1.589,1.589,0,0,0-.671.034c-.121.045-4.191,1.485-9.135,3.227-4.962,1.749-9.132,3.241-9.375,3.337a1.639,1.639,0,0,0-.692.651l-.028.049-.015.054a16.5,16.5,0,0,0-.481,2.659,34.6,34.6,0,0,0-.3,5.77,39.638,39.638,0,0,0,.5,7.577c1.721,10.933,7.136,18.763,15.657,22.644a26.211,26.211,0,0,0,4.268,1.511l.09.023.091-.016a1.753,1.753,0,0,0,1.426-1.489A1.612,1.612,0,0,0,10786.381,6471.1Z" transform="translate(0.001)" fill="#707070"/>
    <path id="Path_6596" data-name="Path 6596" d="M10795.249,6444.468l-.1,0a1.519,1.519,0,0,0-1.107.475c-.277.264-2.94,3.507-4.47,5.381-1.812,2.223-3.232,3.939-3.819,4.635-.362-.417-1.038-1.218-1.865-2.247-1.087-1.351-2.275-2.753-2.49-2.941a1.528,1.528,0,0,0-2.155.125,1.5,1.5,0,0,0-.384,1.058c0,.626.11.762,2.942,4.243,2.541,3.109,2.992,3.6,3.4,3.751a1.266,1.266,0,0,0,.6.153,1.25,1.25,0,0,0,.521-.113c.218-.093.425-.181,5.376-6.231,4.979-6.089,4.979-6.089,4.979-6.657A1.535,1.535,0,0,0,10795.249,6444.468Z" transform="translate(-1.968 -2.6)" fill="#707070"/>
    <path id="Path_6597" data-name="Path 6597" d="M10813.4,6466.351a4.329,4.329,0,0,0-2.17-2,6.428,6.428,0,0,0-1.283-.258l-.3-.029,0-1.585a7.965,7.965,0,0,0-.248-2.866,5.683,5.683,0,0,0-6.146-3.873,6.4,6.4,0,0,0-2.318.843,6.58,6.58,0,0,0-2.012,2.311,8.456,8.456,0,0,0-.631,4.016v1.158l-.223.024a4.086,4.086,0,0,0-3.424,2.264l-.35.712v8.958l.316.636a4.208,4.208,0,0,0,2.131,2.007c.693.256.693.256,7.283.256,6.324,0,6.6-.009,7.242-.246a3.723,3.723,0,0,0,2.084-1.94l.406-.822v-8.847Zm-15.637,9.26a.622.622,0,0,1-.252-.282,65.313,65.313,0,0,1-.016-7.5,1.028,1.028,0,0,1,.25-.383c.156-.126,1.215-.126,6.3-.126h6.117l.385.384v3.8c0,3.7-.012,3.973-.316,4.145-1.4.1-2.824.146-4.227.146-.664,0-1.326-.011-2-.032C10798.771,6475.769,10798,6475.759,10797.762,6475.61Zm3.787-13.019c0-1.717.021-1.821.223-2.249a2.615,2.615,0,0,1,1.244-1.257,2.944,2.944,0,0,1,2.121.056,2.848,2.848,0,0,1,.73.6c.51.592.629.937.629,2.962v1.356h-4.947Z" transform="translate(-4.214 -4.234)" fill="#707070"/>
    <path id="Path_6598" data-name="Path 6598" d="M10805.41,6470.991a1.428,1.428,0,0,0-.894.316,1.083,1.083,0,0,0-.184.182l-.5.5v1.754c0,1.718.042,2.231,1,2.64a1.58,1.58,0,0,0,1.843-.5c.3-.382.311-.7.311-2.125v-1.765l-.467-.464A1.424,1.424,0,0,0,10805.41,6470.991Z" transform="translate(-5.603 -6.46)" fill="#707070"/>
  </g>
</svg>
