<svg xmlns="http://www.w3.org/2000/svg" width="49.217" height="60.554" viewBox="0 0 49.217 60.554">
  <g id="Promoted" transform="translate(-7.038 -1.216)">
    <path id="Path_1637" data-name="Path 1637" d="M44.016,45.2l-.007.02c-.7,2-1.578,4.5-3.985,5.281a4.266,4.266,0,0,1-1.32.206c-1.746,0-3.238-.976-4.675-1.963l3.586,12.1a1.3,1.3,0,0,0,2.355.315L42.543,57a1.3,1.3,0,0,1,1.357-.592l4.8.937a1.3,1.3,0,0,0,1.37-1.942Z" fill="#ffab00"/>
    <path id="Path_1638" data-name="Path 1638" d="M24.587,50.7a4.268,4.268,0,0,1-1.32-.206c-2.22-.721-3.133-2.9-3.814-4.8L13.7,55.4a1.3,1.3,0,0,0,1.37,1.942l4.8-.937A1.3,1.3,0,0,1,21.221,57l2.573,4.154a1.3,1.3,0,0,0,2.355-.315l3.706-12.5-.4.274C27.958,49.64,26.41,50.7,24.587,50.7Z" fill="#ffab00"/>
    <path id="Path_1639" data-name="Path 1639" d="M56.254,24.71c0-2.413-4.752-4.045-5.459-6.223-.733-2.257,2.127-6.366.76-8.244-1.381-1.9-6.181-.44-8.078-1.82C41.6,7.056,41.509,2.033,39.252,1.3c-2.178-.707-5.193,3.281-7.606,3.281S26.217.593,24.04,1.3c-2.257.733-2.346,5.756-4.224,7.123-1.9,1.38-6.7-.077-8.078,1.82-1.367,1.878,1.493,5.987.76,8.244-.707,2.177-5.459,3.81-5.459,6.223s4.753,4.045,5.46,6.223c.733,2.257-2.127,6.366-.76,8.244,1.381,1.9,6.181.44,8.078,1.82,1.878,1.367,1.968,6.39,4.224,7.123,2.177.707,5.193-3.281,7.607-3.281s5.429,3.988,7.606,3.281c2.256-.733,2.346-5.756,4.224-7.123,1.9-1.381,6.7.077,8.078-1.82,1.367-1.878-1.493-5.987-.76-8.244C51.5,28.756,56.254,27.124,56.254,24.71Zm-24.6,13.122A13.121,13.121,0,1,1,44.773,24.71,13.121,13.121,0,0,1,31.652,37.832Z" fill="#ffab00"/>
    <path id="Path_1640" data-name="Path 1640" d="M37.415,21.549H34.951a1.338,1.338,0,0,1-1.272-.924l-.761-2.343a1.338,1.338,0,0,0-2.544,0l-.761,2.343a1.338,1.338,0,0,1-1.272.924H25.877a1.337,1.337,0,0,0-.786,2.42l1.993,1.448a1.338,1.338,0,0,1,.486,1.5l-.761,2.343a1.338,1.338,0,0,0,2.058,1.495L30.86,29.3a1.337,1.337,0,0,1,1.572,0l1.993,1.448a1.338,1.338,0,0,0,2.058-1.5l-.761-2.343a1.338,1.338,0,0,1,.486-1.5L38.2,23.969a1.338,1.338,0,0,0-.786-2.419Z" fill="#ffab00"/>
  </g>
</svg>
