<svg xmlns="http://www.w3.org/2000/svg" width="15" height="15" viewBox="0 0 15 15">
  <g id="Setting_icon" data-name="Setting icon" transform="translate(-231.06 -530.07)">
    <path id="Path_300" data-name="Path 300" d="M238.56,535.49a2.08,2.08,0,1,0-.01,4.16h.01a2.08,2.08,0,1,0,0-4.16Z" fill="#707070"/>
    <path id="Path_301" data-name="Path 301" d="M243.06,530.07h-9a3,3,0,0,0-3,3v9a3,3,0,0,0,3,3h9a3,3,0,0,0,3-3v-9A3,3,0,0,0,243.06,530.07Zm.14,8.22.22.13a1.229,1.229,0,0,1,.47,1.7l-.42.72a1.272,1.272,0,0,1-1.73.46l-.23-.12a.787.787,0,0,0-.42-.12.839.839,0,0,0-.84.84v.25a1.268,1.268,0,0,1-1.27,1.25h-.85a1.257,1.257,0,0,1-1.26-1.24v-.26a.779.779,0,0,0-.12-.41.847.847,0,0,0-1.15-.31l-.22.13a1.29,1.29,0,0,1-1.74-.46l-.42-.72a1.241,1.241,0,0,1,.47-1.71l.22-.13a.747.747,0,0,0,.31-.3.827.827,0,0,0-.31-1.14l-.22-.12v-.01a1.229,1.229,0,0,1-.47-1.7l.42-.72a1.281,1.281,0,0,1,1.74-.46l.22.12a.787.787,0,0,0,.42.12.847.847,0,0,0,.85-.84v-.25a1.253,1.253,0,0,1,1.26-1.25h.85a1.268,1.268,0,0,1,1.27,1.25v.25a.877.877,0,0,0,.11.42.853.853,0,0,0,1.15.3l.23-.13a1.29,1.29,0,0,1,1.73.46l.42.73a1.229,1.229,0,0,1-.47,1.7l-.22.13a.891.891,0,0,0-.31.3A.835.835,0,0,0,243.2,538.29Z" fill="#707070"/>
  </g>
</svg>
