<svg xmlns="http://www.w3.org/2000/svg" width="15.937" height="15.891" viewBox="0 0 15.937 15.891">
  <g id="_5402394_internet_link_hyperlink_url_web_icon" data-name="5402394_internet_link_hyperlink_url_web_icon" transform="translate(-2.697 -2.747)">
    <path id="Path_1667" data-name="Path 1667" d="M16.357,11.829a.852.852,0,0,1-.6-1.456l1.816-1.816a1.713,1.713,0,0,0,0-2.424L16.357,4.916a1.764,1.764,0,0,0-2.424,0L12.117,6.732a.857.857,0,0,1-1.208-1.2l1.816-1.816a3.512,3.512,0,0,1,4.848,0l1.208,1.208a3.426,3.426,0,0,1,0,4.848L16.956,11.58A.857.857,0,0,1,16.357,11.829Z" transform="translate(-1.152)" fill="#707070"/>
    <path id="Path_1668" data-name="Path 1668" d="M7.333,19.783a3.426,3.426,0,0,1-2.424-1L3.7,17.573a3.426,3.426,0,0,1,0-4.848l1.824-1.816a.857.857,0,0,1,1.2,1.208L4.909,13.933a1.713,1.713,0,0,0,0,2.424l1.216,1.216a1.764,1.764,0,0,0,2.424,0l1.816-1.816a.857.857,0,1,1,1.208,1.2L9.757,18.772A3.426,3.426,0,0,1,7.333,19.783Z" transform="translate(0 -1.145)" fill="#707070"/>
    <path id="Path_1669" data-name="Path 1669" d="M8.676,14.98a.857.857,0,0,1-.608-1.465l5.456-5.447a.857.857,0,1,1,1.208,1.216L9.275,14.732A.857.857,0,0,1,8.676,14.98Z" transform="translate(-0.734 -0.728)" fill="#707070"/>
  </g>
</svg>
