<svg xmlns="http://www.w3.org/2000/svg" width="20" height="20" viewBox="0 0 20 20">
  <path id="Path_1147" data-name="Path 1147" d="M312.42,385.73h-12a4,4,0,0,0-4,4v12a4,4,0,0,0,4,4h12a4.005,4.005,0,0,0,4-4v-12A4.005,4.005,0,0,0,312.42,385.73Zm-6,5h5a1,1,0,0,1,0,2h-5a1,1,0,0,1,0-2Zm6,5a1,1,0,0,1-1,1h-3a1,1,0,0,1,0-2h3A1,1,0,0,1,312.42,395.73Zm-10.88,2.36-1.42-1.41c-.01-.01-.01-.02-.02-.03a1,1,0,0,1,.02-1.41,1.017,1.017,0,0,1,1.42.02l.7.71,2.13-2.12a1,1,0,0,1,1.41,1.41l-2.83,2.83A1,1,0,0,1,301.54,398.09Zm4.88,2.64a1,1,0,1,1,0-2h5a1,1,0,1,1,0,2Z" transform="translate(-296.42 -385.73)" fill="#0052cc"/>
</svg>
