<svg xmlns="http://www.w3.org/2000/svg" width="45.467" height="48.026" viewBox="0 0 45.467 48.026">
  <g id="first" transform="translate(-10716.515 -6480.062)">
    <path id="Path_6592" data-name="Path 6592" d="M10761.8,6484.543a3,3,0,0,0-1.538-1.64l-.6-.295h-10.669a2.676,2.676,0,0,0-1.552-2.3c-.508-.235-.589-.243-8.183-.243s-7.667.007-8.167.243a2.656,2.656,0,0,0-1.567,2.3h-4.871c-5.658,0-5.769,0-6.306.25a2.8,2.8,0,0,0-1.53,1.486l-.295.6v12.17c0,12.141,0,12.141.251,12.708a3.04,3.04,0,0,0,1.354,1.464c.515.294.515.294,6.225.338l4.584.037-1.677,6.968c-.936,3.892-1.885,7.917-1.907,8.035l-.029.177.06.169a1.334,1.334,0,0,0,.4.625l.434.449h3.407c3.333,0,3.4,0,3.789-.39.316-.316.316-.316,2.473-9.278l1.633-6.784H10741l1.611,6.688c2.178,9.058,2.178,9.058,2.5,9.374.382.39.449.39,3.781.39h3.414l.368-.39a1.533,1.533,0,0,0,.486-.742l.015-.111v-.059c0-.118,0-.169-1.913-8.152l-1.678-6.961,4.643-.037c5.644-.052,5.644-.052,6.151-.339a3.089,3.089,0,0,0,1.31-1.332c.258-.485.258-.485.287-12.708C10762,6485.529,10761.988,6485.059,10761.8,6484.543Zm-11.751,40.793c-.331.008-.758.008-1.214.008h-1.707c-.427-1.781-2.759-11.479-3.3-13.708h2.921c.191.772.92,3.8,1.743,7.247C10748.979,6520.885,10749.707,6523.924,10750.045,6525.336Zm-18.66,0-.007.008h-1.7c-.456,0-.883,0-1.215-.008.221-.92,3.149-13.1,3.3-13.708h1.7c.457,0,.884,0,1.222.008-.492,2.06-2.642,10.993-2.642,10.993C10731.68,6524.122,10731.43,6525.152,10731.385,6525.336Zm.509-42.456a.459.459,0,0,1,.11-.353l.073-.088h7.13c6.07,0,7.167,0,7.313.117.1.073.1.073.1.346v.073h-14.723Zm27.356,2.664-.021,11.611-.029,11.61-.074.074h-39.74l-.081-.074-.021-11.61-.022-11.611.19-.191h39.608Z" fill="#707070"/>
    <path id="Path_6593" data-name="Path 6593" d="M10759.166,6487.9c-.169-.08-.391-.168-18.815-.168-18.468,0-18.645.088-18.938.242a1.539,1.539,0,0,0-.582.824c-.059.2-.117.412-.088,10.551l.029,10.323.846.847h37.5l.847-.847.029-10.323c.029-10.139-.029-10.353-.081-10.514A1.413,1.413,0,0,0,10759.166,6487.9Zm-35.657,2.568,16.887.023,16.828.021.022,17.218h-33.752l-.008-8.3C10723.479,6494.863,10723.494,6491.456,10723.509,6490.469Z" transform="translate(-1.115 -2.027)" fill="#707070"/>
    <path id="Path_6594" data-name="Path 6594" d="M10727.328,6507.356a2.268,2.268,0,0,0,1.656-.713,3.135,3.135,0,0,0,.3-.4,1.83,1.83,0,0,0,.28-1.413l-.036-.566,1.729-1.722a16.981,16.981,0,0,1,1.723-1.647,2.688,2.688,0,0,0,.721.1,2.469,2.469,0,0,0,.735-.11,4.707,4.707,0,0,1,.442.42,5.042,5.042,0,0,1,.447.471c-.007,0-.007.007-.007.007a2.691,2.691,0,0,0,.118,1.714,2.275,2.275,0,0,0,2.061,1.311,2.267,2.267,0,0,0,1.707-.773,2.162,2.162,0,0,0,.559-1.707l-.014-.257,2.869-2.222c1.53-1.17,2.686-2.016,3.023-2.229a3.819,3.819,0,0,1,.4.1,1.547,1.547,0,0,0,.551.1,1.753,1.753,0,0,0,.479-.066l.141-.044,1.051,1.171c2.7,3,4.96,5.526,5.246,6.018-.154,1.288-.072,1.869.678,2.509a2.255,2.255,0,0,0,1.5.566,2.3,2.3,0,0,0-.022-4.591,1.943,1.943,0,0,0-.367.029l-.25.029-3.135-3.51c-.714-.794-2.826-3.157-3.142-3.649.154-1.221.087-1.854-.663-2.487a2.222,2.222,0,0,0-1.516-.6,2.162,2.162,0,0,0-.8.154,2.214,2.214,0,0,0-1.465,2.163l-.037.516-2.906,2.236c-1.773,1.376-2.752,2.134-2.877,2.185a2.259,2.259,0,0,0-.979-.228,2.024,2.024,0,0,0-.523.066l-.227.044-.428-.419-.449-.441.037-.4a2.206,2.206,0,0,0-2.229-2.635,2.362,2.362,0,0,0-1.576.611,2.238,2.238,0,0,0-.617,2.369l.029.073-1.678,1.693-1.715,1.706-.168-.029a3.428,3.428,0,0,0-.6-.052,2.166,2.166,0,0,0-2.311,2.1,2.116,2.116,0,0,0,.7,1.839A2.282,2.282,0,0,0,10727.328,6507.356Zm28.212-1.913a.185.185,0,0,1,.146-.066.219.219,0,0,1,.133.051l.028.037.037.03a.192.192,0,0,1,.082.161.383.383,0,0,1-.266.331.542.542,0,0,1-.176-.1.268.268,0,0,1-.037-.382l-.287-.229Zm-8.948-10.249a.431.431,0,0,1,.191.11.244.244,0,0,1,.044.338l-.065.066a.48.48,0,0,1-.17.1.353.353,0,0,1-.258-.287A.347.347,0,0,1,10746.592,6495.194Zm-9.072,7.034a.3.3,0,0,1,.229.118c.037.03.044.125,0,.236a.367.367,0,0,1-.2.235.346.346,0,0,1-.309-.317A.273.273,0,0,1,10737.52,6502.228Zm-4.054-3.679a.264.264,0,0,1,.235-.132.279.279,0,0,1,.184.5.205.205,0,0,1-.162.081.3.3,0,0,1-.242-.155A.306.306,0,0,1,10733.466,6498.549Zm-6.145,6.225.007-.368v.368a.284.284,0,0,1,.192.066.365.365,0,0,1,.007.441.268.268,0,0,1-.191.082.294.294,0,0,1-.2-.089.3.3,0,0,1-.08-.22A.272.272,0,0,1,10727.321,6504.773Z" transform="translate(-2.257 -3.469)" fill="#707070"/>
  </g>
</svg>
