<svg xmlns="http://www.w3.org/2000/svg" width="20" height="20" viewBox="0 0 20 20">
  <g id="Group_3571" data-name="Group 3571" transform="translate(221.993 784.968)">
    <path id="Path_4196" data-name="Path 4196" d="M-205.986-784.968H-218a3.991,3.991,0,0,0-3.992,3.992v12.015A3.992,3.992,0,0,0-218-764.968h12.015a3.993,3.993,0,0,0,3.993-3.993v-12.015A3.992,3.992,0,0,0-205.986-784.968Zm-7.851,12.672h-2.625a2.2,2.2,0,0,1-2.2-2.2v-4.935a2.2,2.2,0,0,1,2.2-2.2h4.936a2.2,2.2,0,0,1,2.2,2.2.667.667,0,0,1-.667.667.666.666,0,0,1-.667-.667.866.866,0,0,0-.865-.867h-4.936a.866.866,0,0,0-.865.867v4.935a.866.866,0,0,0,.865.865h2.625a.666.666,0,0,1,.667.667A.665.665,0,0,1-213.837-772.3Zm4.509-4.624v.1a.667.667,0,0,1-.667.667.666.666,0,0,1-.667-.667.708.708,0,0,1,.667-.715A.628.628,0,0,1-209.328-776.92Zm4,6.413a2.2,2.2,0,0,1-2.2,2.2h-2.269a2.2,2.2,0,0,1-2.2-2.2v-2.269a2.2,2.2,0,0,1,2.2-2.2h2.269a2.2,2.2,0,0,1,2.2,2.2Z" transform="translate(0)" fill="#379836"/>
    <path id="Rectangle_2042" data-name="Rectangle 2042" d="M.649,0h2.7A.649.649,0,0,1,4,.649v2.7A.648.648,0,0,1,3.352,4H.649A.649.649,0,0,1,0,3.351V.649A.649.649,0,0,1,.649,0Z" transform="translate(-210.659 -773.642)" fill="#379836"/>
  </g>
</svg>
