<svg xmlns="http://www.w3.org/2000/svg" width="18.084" height="12.056" viewBox="0 0 18.084 12.056">
  <path id="Icon_awesome-eye" data-name="Icon awesome-eye" d="M17.975,10.07A10.07,10.07,0,0,0,9.042,4.5,10.072,10.072,0,0,0,.109,10.07a1.016,1.016,0,0,0,0,.916,10.07,10.07,0,0,0,8.933,5.57,10.072,10.072,0,0,0,8.933-5.57A1.016,1.016,0,0,0,17.975,10.07Zm-8.933,4.98a4.521,4.521,0,1,1,4.521-4.521A4.521,4.521,0,0,1,9.042,15.049Zm0-7.535a2.992,2.992,0,0,0-.795.119,1.5,1.5,0,0,1-2.1,2.1,3.007,3.007,0,1,0,2.9-2.219Z" transform="translate(0 -4.5)" fill="#707070"/>
</svg>
