<svg xmlns="http://www.w3.org/2000/svg" width="30.165" height="38.814" viewBox="0 0 30.165 38.814">
  <g id="jpg" transform="translate(-568.734 329.733)">
    <path id="Path_2124" data-name="Path 2124" d="M372.823,1253.267l9.2,9.068h-9.2Z" transform="translate(216.875 -1583)" fill="#5d5d5d"/>
    <g id="XMLID_86_8" data-name="XMLID 86 8" transform="translate(216.875 -1583)" opacity="0.3" style="isolation: isolate">
      <path id="Path_2125" data-name="Path 2125" d="M372.823,1253.267h-18.85v38.814h28.051v-29.757Z" fill="#5d5d5d"/>
    </g>
    <g id="Group_2048" data-name="Group 2048" transform="translate(216.875 -1583)">
      <g id="XMLID_84_8" data-name="XMLID 84 8">
        <rect id="Rectangle_1469" data-name="Rectangle 1469" width="28" height="13.286" transform="translate(351.859 1271.46)" fill="#ef5c41"/>
      </g>
      <g id="XMLID_83_8" data-name="XMLID 83 8">
        <path id="Path_2126" data-name="Path 2126" d="M351.859,1284.743l2.127,1.8v-1.8Z" fill="#ef5c41"/>
      </g>
      <g id="_.jpg" data-name=" .jpg" style="isolation: isolate">
        <g id="Group_2047" data-name="Group 2047" style="isolation: isolate">
          <path id="Path_2127" data-name="Path 2127" d="M357.009,1281.869a.66.66,0,0,1,.468-1.128.607.607,0,0,1,.452.192.682.682,0,0,1,0,.936.607.607,0,0,1-.452.192A.634.634,0,0,1,357.009,1281.869Z" fill="#fff"/>
          <path id="Path_2128" data-name="Path 2128" d="M360.444,1283.262a1.481,1.481,0,0,1-.393,1.139,1.643,1.643,0,0,1-1.149.361h-.564v-.818h.4a.812.812,0,0,0,.569-.16.739.739,0,0,0,.165-.543v-7.073h.967Zm-.941-8.232a.682.682,0,0,1,0-.936.653.653,0,0,1,.925,0,.679.679,0,0,1,0,.936.656.656,0,0,1-.925,0Z" fill="#fff"/>
          <path id="Path_2129" data-name="Path 2129" d="M363.949,1276.407a2.564,2.564,0,0,1,1.324-.335,2.723,2.723,0,0,1,1.41.373,2.621,2.621,0,0,1,.994,1.047,3.28,3.28,0,0,1,.362,1.569,3.349,3.349,0,0,1-.362,1.575,2.651,2.651,0,0,1-2.4,1.457,2.543,2.543,0,0,1-1.313-.335,2.394,2.394,0,0,1-.867-.835v3.839h-.968v-8.594h.968v1.074A2.307,2.307,0,0,1,363.949,1276.407Zm2.835,1.505a1.847,1.847,0,0,0-.718-.744,1.982,1.982,0,0,0-.995-.256,1.935,1.935,0,0,0-.984.261,1.909,1.909,0,0,0-.723.755,2.571,2.571,0,0,0,0,2.3,1.913,1.913,0,0,0,.723.755,1.933,1.933,0,0,0,.984.26,1.955,1.955,0,0,0,.995-.26,1.882,1.882,0,0,0,.718-.755,2.428,2.428,0,0,0,.266-1.165A2.375,2.375,0,0,0,366.784,1277.912Z" fill="#fff"/>
          <path id="Path_2130" data-name="Path 2130" d="M373.086,1276.4a2.192,2.192,0,0,1,.846.83v-1.064h.978v5.956a2.922,2.922,0,0,1-.34,1.421,2.432,2.432,0,0,1-.974.973,2.988,2.988,0,0,1-1.473.351,3.225,3.225,0,0,1-1.914-.543,2.12,2.12,0,0,1-.905-1.478h.958a1.522,1.522,0,0,0,.659.856,2.161,2.161,0,0,0,1.2.325,1.775,1.775,0,0,0,1.3-.5,1.89,1.89,0,0,0,.506-1.405V1280.9a2.336,2.336,0,0,1-.851.851,2.5,2.5,0,0,1-1.319.341,2.654,2.654,0,0,1-2.4-1.457,3.361,3.361,0,0,1-.361-1.575,3.291,3.291,0,0,1,.361-1.569,2.63,2.63,0,0,1,.995-1.047,2.723,2.723,0,0,1,1.41-.373A2.592,2.592,0,0,1,373.086,1276.4Zm.58,1.521a1.889,1.889,0,0,0-.718-.75,2.033,2.033,0,0,0-1.984-.005,1.849,1.849,0,0,0-.713.744,2.375,2.375,0,0,0-.266,1.149,2.428,2.428,0,0,0,.266,1.165,1.884,1.884,0,0,0,.713.755,1.922,1.922,0,0,0,.989.26,1.957,1.957,0,0,0,.995-.26,1.882,1.882,0,0,0,.718-.755,2.406,2.406,0,0,0,.266-1.154A2.373,2.373,0,0,0,373.666,1277.923Z" fill="#fff"/>
        </g>
      </g>
    </g>
  </g>
</svg>
