<svg xmlns="http://www.w3.org/2000/svg" width="28.111" height="38.896" viewBox="0 0 28.111 38.896">
  <g id="NO_NAME" data-name="NO NAME" transform="translate(-202.483 -1172.221)">
    <g id="Path_2050" data-name="Path 2050" opacity="0.3" style="isolation: isolate">
      <path id="Path_2148" data-name="Path 2148" d="M221.374,1172.221H202.483v38.9h28.111V1181.3Z" fill="#5d5d5d"/>
    </g>
    <g id="Path_2051" data-name="Path 2051">
      <path id="Path_2149" data-name="Path 2149" d="M221.374,1172.221l9.22,9.087h-9.22Z" fill="#5d5d5d"/>
    </g>
    <g id="Path_2052" data-name="Path 2052">
      <path id="Path_2150" data-name="Path 2150" d="M216.552,1203.517a1.618,1.618,0,0,1-.017-3.235h.017a1.617,1.617,0,0,1,0,3.235Zm-.146-6.467a1.618,1.618,0,0,1-.512-3.152c.969-.328,3.745-1.645,3.745-3.317a3.236,3.236,0,0,0-6.288-1.08,1.617,1.617,0,0,1-3.052-1.072,6.472,6.472,0,0,1,12.575,2.152c0,4.277-5.347,6.182-5.957,6.386A1.634,1.634,0,0,1,216.406,1197.05Z" fill="#ef5c41"/>
    </g>
  </g>
</svg>
