<svg xmlns="http://www.w3.org/2000/svg" width="30.181" height="38.814" viewBox="0 0 30.181 38.814">
  <g id="png" transform="translate(-175.09 -1253.267)">
    <g id="XMLID_86_2" data-name="XMLID 86 2" opacity="0.3" style="isolation: isolate">
      <path id="Path_2081" data-name="Path 2081" d="M196.07,1253.267H177.22v38.814h28.051v-29.757Z" fill="#5d5d5d"/>
    </g>
    <g id="XMLID_85_2" data-name="XMLID 85 2">
      <path id="Path_2082" data-name="Path 2082" d="M196.07,1253.267l9.2,9.068h-9.2Z" fill="#5d5d5d"/>
    </g>
    <g id="XMLID_84_2" data-name="XMLID 84 2">
      <rect id="Rectangle_1463" data-name="Rectangle 1463" width="28" height="13.286" transform="translate(175.09 1271.461)" fill="#379836"/>
    </g>
    <g id="XMLID_83_2" data-name="XMLID 83 2">
      <path id="Path_2083" data-name="Path 2083" d="M175.09,1284.744l2.127,1.8v-1.8Z" fill="#3e993b"/>
    </g>
    <g id="_.png" data-name=" .png" style="isolation: isolate">
      <g id="Group_2032" data-name="Group 2032" style="isolation: isolate">
        <path id="Path_2084" data-name="Path 2084" d="M178.154,1281.869a.66.66,0,0,1,.468-1.128.607.607,0,0,1,.452.192.682.682,0,0,1,0,.936.607.607,0,0,1-.452.192A.634.634,0,0,1,178.154,1281.869Z" fill="#fff"/>
        <path id="Path_2085" data-name="Path 2085" d="M182.414,1276.407a2.561,2.561,0,0,1,1.324-.335,2.723,2.723,0,0,1,1.41.373,2.628,2.628,0,0,1,.994,1.047,3.28,3.28,0,0,1,.362,1.569,3.349,3.349,0,0,1-.362,1.575,2.651,2.651,0,0,1-2.4,1.457,2.549,2.549,0,0,1-1.314-.335,2.4,2.4,0,0,1-.866-.835v3.839h-.969v-8.594h.969v1.074A2.307,2.307,0,0,1,182.414,1276.407Zm2.835,1.505a1.847,1.847,0,0,0-.718-.744,1.982,1.982,0,0,0-1-.256,1.935,1.935,0,0,0-.984.261,1.909,1.909,0,0,0-.723.755,2.571,2.571,0,0,0,0,2.3,1.913,1.913,0,0,0,.723.755,1.933,1.933,0,0,0,.984.26,1.955,1.955,0,0,0,1-.26,1.882,1.882,0,0,0,.718-.755,2.428,2.428,0,0,0,.266-1.165A2.375,2.375,0,0,0,185.249,1277.912Z" fill="#fff"/>
        <path id="Path_2086" data-name="Path 2086" d="M192.386,1276.7a2.48,2.48,0,0,1,.659,1.856V1282h-.957v-3.3a1.875,1.875,0,0,0-.436-1.334,1.558,1.558,0,0,0-1.192-.463,1.591,1.591,0,0,0-1.217.479,1.949,1.949,0,0,0-.452,1.393V1282h-.969v-5.829h.969V1277a1.918,1.918,0,0,1,.781-.691,2.426,2.426,0,0,1,1.091-.245A2.363,2.363,0,0,1,192.386,1276.7Z" fill="#fff"/>
        <path id="Path_2087" data-name="Path 2087" d="M198.4,1276.4a2.192,2.192,0,0,1,.846.83v-1.064h.978v5.956a2.922,2.922,0,0,1-.34,1.421,2.432,2.432,0,0,1-.974.973,2.988,2.988,0,0,1-1.473.351,3.23,3.23,0,0,1-1.915-.543,2.119,2.119,0,0,1-.9-1.478h.958a1.522,1.522,0,0,0,.659.856,2.161,2.161,0,0,0,1.2.325,1.775,1.775,0,0,0,1.3-.5,1.89,1.89,0,0,0,.506-1.405V1280.9a2.336,2.336,0,0,1-.851.851,2.5,2.5,0,0,1-1.319.341,2.654,2.654,0,0,1-2.4-1.457,3.361,3.361,0,0,1-.361-1.575,3.291,3.291,0,0,1,.361-1.569,2.63,2.63,0,0,1,1-1.047,2.723,2.723,0,0,1,1.41-.373A2.592,2.592,0,0,1,198.4,1276.4Zm.58,1.521a1.889,1.889,0,0,0-.718-.75,2.033,2.033,0,0,0-1.984-.005,1.849,1.849,0,0,0-.713.744,2.375,2.375,0,0,0-.266,1.149,2.428,2.428,0,0,0,.266,1.165,1.884,1.884,0,0,0,.713.755,1.922,1.922,0,0,0,.989.26,1.957,1.957,0,0,0,.995-.26,1.882,1.882,0,0,0,.718-.755,2.406,2.406,0,0,0,.266-1.154A2.373,2.373,0,0,0,198.981,1277.923Z" fill="#fff"/>
      </g>
    </g>
  </g>
</svg>
